<svg xmlns="http://www.w3.org/2000/svg" viewBox="0 0 520.34668 160.89333" height="160.893" width="520.347"><defs><clipPath id="a"><path d="M0 1206.67V0h3902.6v1206.67z"/></clipPath></defs><g clip-path="url(#a)" transform="matrix(.13333 0 0 -.13333 0 160.893)"><path d="M2886.77 991.254h3.45c11.69 0 24.82 2.434 24.82 19.066 0 16.63-13.13 19.06-24.82 19.06h-3.45zm78.65-84.367h-44.53l-33.77 58.808h-.35v-58.808h-35.78V1059.8h53.48c27.18 0 47.81-14.4 47.81-47.05 0-21.098-10.59-39.344-30.11-43.2l43.25-62.663M2964.72 1059.8h42.89l25.74-41.57 25.73 41.57h42.89l-50.73-79.5v-73.413h-35.78V980.3l-50.74 79.5M3160.39 1012.54h-.35l-14.79-48.665H3175zm-24.99-79.087l-9.5-26.566h-37.96l52.93 152.913h39.06l51.83-152.913h-38.15l-8.95 26.566h-49.26M3254.93 1059.8h35.77l65.52-93.49h.37v93.49h35.77V906.887h-35.77l-65.52 93.693h-.37v-93.693h-35.77V1059.8M2926.55 777.105c-6.57 6.086-14.97 10.14-23.73 10.14-6.57 0-15.33-4.257-15.33-12.772 0-8.922 9.67-12.37 15.88-14.602l9.11-3.038c19.17-6.29 33.96-17.04 33.96-41.777 0-15.21-3.28-30.828-14.23-41.168-10.78-10.14-25.2-14.4-39.06-14.4-17.35 0-34.31 6.49-48.37 17.44l15.34 32.042c8.95-8.72 19.52-15.818 31.75-15.818 8.39 0 17.33 4.66 17.33 15.414 0 11.153-14.04 15.004-21.71 17.438-22.45 7.1-37.24 13.59-37.24 43.195 0 31.027 19.91 51.308 47.47 51.308 13.86 0 30.83-4.867 43.06-12.57l-14.23-30.833M3011.23 746.28h6.01c12.97 0 25.74 0 25.74 18.66 0 19.27-11.86 19.466-25.74 19.466h-6.01zm-35.77 70.173h54.75c29.56 0 50.01-15.21 50.01-50.293 0-36.098-17.54-51.918-48.74-51.918h-20.25v-50.7h-35.77v152.91M3143.92 782.79v-25.556h40.34V723.57h-40.34v-26.363h42.52v-33.664h-78.3v152.91h78.3V782.79h-42.52M3318.94 765.145c-7.31 10.953-19.16 16.832-31.39 16.832-21.9 0-36.68-18.657-36.68-42.383 0-24.133 14.97-41.574 37.24-41.574 11.67 0 23.36 6.285 30.83 16.222v-47.656c-11.87-4.06-20.44-7.098-31.58-7.098-19.16 0-37.4 8.11-51.63 22.508-15.16 15.21-22.1 35.086-22.1 57.797 0 20.887 7.12 40.965 20.26 55.977 13.51 15.41 33.04 24.738 52.38 24.738 11.5 0 22.08-2.84 32.67-7.707v-47.655M3353.08 663.543h35.777v152.91h-35.777zM3484.3 769.2h-.37l-14.79-48.673h29.77zm-25.01-79.09l-9.48-26.567h-37.96l52.92 152.91h39.05l51.84-152.91h-38.14l-8.95 26.566h-49.28M3614.61 697.207h42.88v-33.664h-78.65v152.91h35.77V697.207M3725.96 663.543h-35.77V782.79h-29.58v33.663h94.91V782.79h-29.56V663.542M3765.37 816.453h42.88l25.73-41.574 25.74 41.573h42.88l-50.73-79.496v-73.414h-35.77v73.414l-50.73 79.496M2988.22 505.574c-.35-22.312-1.81-41.367-14.04-60.44-13.51-20.884-33.77-30.005-56.76-30.005-43.25 0-73.36 32.643-73.36 80.71 0 49.68 30.29 82.332 74.64 82.332 28.28 0 50.19-14.2 62.05-42.79l-33.94-15.82c-4.94 14.606-15.34 24.336-29.76 24.336-23.53 0-35.76-24.937-35.76-48.26 0-23.732 12.77-47.865 36.32-47.865 15.51 0 27.36 8.918 28.83 26.563h-29.21v31.238h70.99M3052.48 504.562h3.45c11.69 0 24.83 2.43 24.83 19.055s-13.14 19.067-24.83 19.067h-3.45zm78.65-84.37h-44.53l-33.77 58.812h-.35V420.19h-35.77v152.912h53.47c27.18 0 47.82-14.4 47.82-47.055 0-21.086-10.6-39.336-30.12-43.195l43.25-62.66M3183.16 499.28c0-26.354 17.52-45.624 38.87-45.624 21.34 0 38.87 19.27 38.87 45.625 0 21.09-17.53 40.36-38.87 40.36-21.35 0-38.87-19.27-38.87-40.36zm114.96.208c0-49.476-31.93-84.36-76.09-84.36-44.18 0-76.11 34.884-76.11 84.36 0 46.24 36.5 78.684 76.11 78.684 39.6 0 76.09-32.445 76.09-78.684M3446.14 573.102v-85.98c0-19.68-.73-39.153-14.42-53.95-11.49-12.57-29.56-17.03-45.63-17.03-16.05 0-34.12 4.46-45.62 17.03-13.68 14.797-14.42 34.27-14.42 53.95v85.98h35.77v-80.508c0-19.87 1.28-41.582 24.27-41.582 23.01 0 24.29 21.71 24.29 41.582v80.508h35.76M3516.61 502.93h6.01c12.97 0 25.73 0 25.73 18.664 0 19.26-11.85 19.465-25.73 19.465h-6.01zm-35.78 70.172h54.76c29.56 0 50-15.215 50-50.293 0-36.1-17.53-51.915-48.74-51.915h-20.24V420.19h-35.78v152.912" fill="#5c6066"/><path d="M490.97 1102.81c45.858 8.8 82.22 13.2 109.092 13.2 60.684 0 109.442-18.41 146.266-55.24 36.828-36.83 55.242-84.668 55.242-143.49 0-60.225-22.824-109.784-68.44-148.702-45.638-38.91-113.388-58.367-203.25-58.367-4.17 0-9.5.11-15.982.352-6.492.223-14.136.344-22.93.344zm135.5-850.513h-36.833c-35.21 0-61.614 10.183-79.215 30.574-12.973 14.357-19.453 51.185-19.453 110.49v273.77c7.4-.466 14.59-.814 21.538-1.04 6.945-.242 13.433-.348 19.457-.348 14.82 0 34.047.453 57.672 1.387L908.582 226.58h251.538l51.76 11.363 27.84 9.274c35.4 8.733 72.98 17.436 112.69 25.702 4.64.96 9.48 1.867 14.17 2.82-47.34.985-91.04 11.953-131 33.164-41.93 22.246-73.08 50.137-93.45 83.73-20.39 33.575-36.61 84.18-48.66 151.82h-25.7V274.442c-11.81 4.904-22.79 10.435-32.72 16.77-31.97 20.372-70.183 61.602-114.655 123.68L725.832 685.196c79.215 17.606 137.69 47.71 175.453 90.332 37.75 42.618 56.633 92.875 56.633 150.785 0 54.2-16.566 100.868-49.684 140.018-33.125 39.14-73.425 66.01-120.906 80.6-47.492 14.6-121.258 21.89-221.316 21.89H222.75v-25.71h35.438c35.667 0 62.54-10.2 80.605-30.57 12.96-14.36 19.457-51.19 19.457-110.49V393.36c0-53.75-4.863-87.794-14.594-102.15-17.144-25.956-45.633-38.913-85.468-38.913H222.75v-25.715h403.72v25.715M1891.2 321.91c53.83-2.457 108.14-7.363 162.53-15.68 13.41-2.05 26.81-4.394 40.21-6.843-11.34 5.51-22.64 11.51-33.87 18.394-56.28 34.505-101.8 88.822-136.54 162.95-34.74 74.114-52.12 156.106-52.12 245.985 0 110.707 26.17 206.133 78.52 286.285 62.54 94.95 153.8 142.45 273.79 142.45 88.01 0 160.04-27.11 216.09-81.31 38.91-37.52 70.65-93.347 95.2-167.46h24.31l-24.31 297.4h-25.71c-1.38-23.62-5.21-39.49-11.46-47.6-6.27-8.1-13.79-12.15-22.6-12.15-8.79 0-26.17 4.86-52.11 14.59-51.42 18.99-91.15 31.26-119.16 36.83-28.04 5.55-59.18 8.33-93.46 8.33-94.05 0-175.58-20.15-244.6-60.45-82.46-48.64-147.3-118.13-194.56-208.458-39.84-75.977-59.76-155.422-59.76-238.34 0-114.426 35.44-215.406 106.32-302.965 22.02-27.203 46.52-51.094 73.29-71.957" fill="#28429e"/><path d="M2304.3 754.508v-26.406c37.99 0 64.52-3.82 79.57-11.465 15.06-7.645 26.18-18.758 33.36-33.356 7.17-14.59 10.77-45.51 10.77-92.764v-272.38c-30.12-17.152-61.39-30.128-93.81-38.917-32.43-8.81-66.02-13.204-100.75-13.204-.08 0-.18.007-.27.007 1.96-.59 3.95-1.078 5.91-1.675 34.9-10.65 69.55-22.993 103.85-37.063.54-.226 1.1-.47 1.65-.69 21.21 3.15 41.62 7.257 61.19 12.323 51.87 13.426 104.45 34.5 157.73 63.23v288.368c0 50.492 4.63 84.308 13.89 101.453 13.44 24.08 38.22 36.132 74.36 36.132h17.36v26.406H2304.3M1162.61 762.66c34.05-26.883 91.38-62.89 171.99-108.055 80.6-45.167 129.93-74.7 148-88.605 26.87-20.38 46.66-42.383 59.41-66 12.73-23.633 19.12-47.03 19.12-70.195 0-41.68-16.81-77.813-50.39-108.4-11.94-10.866-25.5-19.71-40.52-26.717 40.45 6.566 82.21 12.402 125.15 17.062 7.09.77 14.26 1.453 21.41 2.16 45.29 48.43 68.02 104.867 68.02 169.41 0 37.528-8.68 73.414-26.05 107.7-17.38 34.28-42.16 64.042-74.36 89.296-32.2 25.235-92.3 61.485-180.31 108.743-107.94 57.91-176.27 104.233-204.98 138.97-19.92 23.626-29.88 49.79-29.88 78.52 0 37.52 15.74 70.99 47.25 100.41 31.5 29.41 71.33 44.12 119.51 44.12 42.62 0 83.84-10.89 123.68-32.66 39.85-21.78 70.53-51.19 92.08-88.24 21.54-37.075 36.48-86.86 44.82-149.4h25.7v325.89h-25.7c-4.63-21.78-10.77-36.25-18.42-43.43-7.64-7.19-17.48-10.77-29.53-10.77-10.66 0-28.95 5.79-54.89 17.37-56.06 24.55-109.09 36.83-159.12 36.83-80.15 0-146.17-24.44-198.04-73.31-51.88-48.88-77.82-107.13-77.82-174.758 0-38.91 8.8-74.586 26.4-107.004 17.6-32.434 43.43-62.082 77.47-88.938M2342.93 207.266c-34.3 14.074-68.95 26.418-103.85 37.058-1.96.602-3.95 1.09-5.91 1.684-46.12 13.82-92.63 24.832-139.23 33.355-13.4 2.453-26.8 4.797-40.21 6.848-54.39 8.317-108.7 13.224-162.53 15.68-8.88.407-17.78.903-26.63 1.17-84.79 2.538-168.01-1.298-247.79-9.17-7.15-.706-14.32-1.39-21.41-2.163-42.94-4.657-84.7-10.493-125.15-17.06-8.3-1.347-16.62-2.68-24.81-4.093-27.03-4.648-53.23-9.672-78.83-14.85-4.69-.954-9.53-1.86-14.17-2.826-39.71-8.257-77.29-16.964-112.69-25.703-5.66-1.394-11.41-2.793-16.95-4.187-92.76-23.36-168.39-46.348-219.42-60.54C255.21-45.538-10.797 165.942.332 138.122c3.086-7.71 479.957-279.55 1268.858-38.96 784.69 239.297 1383.48-76.79 1383.48-76.79-90.49 76.16-207.47 142.712-308.09 184.2-.55.227-1.11.473-1.65.696" fill="#28429e"/></g></svg>
